<mxfile host="65bd71144e">
    <diagram id="oxYYXQ5WkXWfe8dbFt6P" name="Page-1">
        <mxGraphModel dx="851" dy="365" grid="1" gridSize="10" guides="1" tooltips="1" connect="1" arrows="1" fold="1" page="1" pageScale="1" pageWidth="850" pageHeight="1100" math="0" shadow="0">
            <root>
                <mxCell id="0"/>
                <mxCell id="1" parent="0"/>
                <mxCell id="14" style="edgeStyle=orthogonalEdgeStyle;rounded=0;orthogonalLoop=1;jettySize=auto;html=1;entryX=0.5;entryY=0;entryDx=0;entryDy=0;" parent="1" source="2" target="4" edge="1">
                    <mxGeometry relative="1" as="geometry">
                        <Array as="points">
                            <mxPoint x="390" y="410"/>
                            <mxPoint x="290" y="410"/>
                        </Array>
                    </mxGeometry>
                </mxCell>
                <mxCell id="2" value="Gerente General" style="rounded=1;whiteSpace=wrap;html=1;strokeColor=#36393d;fontColor=#000033;fillColor=#F6FFDE;" parent="1" vertex="1">
                    <mxGeometry x="330" y="290" width="120" height="60" as="geometry"/>
                </mxCell>
                <mxCell id="16" style="edgeStyle=orthogonalEdgeStyle;rounded=0;orthogonalLoop=1;jettySize=auto;html=1;exitX=0;exitY=0.5;exitDx=0;exitDy=0;" parent="1" source="3" edge="1">
                    <mxGeometry relative="1" as="geometry">
                        <mxPoint x="390" y="380" as="targetPoint"/>
                    </mxGeometry>
                </mxCell>
                <mxCell id="3" value="Secretaria" style="rounded=1;whiteSpace=wrap;html=1;strokeColor=#36393d;fontColor=#000033;fillColor=#F6FFDE;" parent="1" vertex="1">
                    <mxGeometry x="460" y="360" width="120" height="40" as="geometry"/>
                </mxCell>
                <mxCell id="17" style="edgeStyle=orthogonalEdgeStyle;rounded=0;orthogonalLoop=1;jettySize=auto;html=1;entryX=0.5;entryY=0;entryDx=0;entryDy=0;" parent="1" source="4" target="8" edge="1">
                    <mxGeometry relative="1" as="geometry"/>
                </mxCell>
                <mxCell id="4" value="Gerente Comercial" style="rounded=1;whiteSpace=wrap;html=1;strokeColor=#36393d;fontColor=#000033;fillColor=#F6FFDE;" parent="1" vertex="1">
                    <mxGeometry x="230" y="440" width="120" height="60" as="geometry"/>
                </mxCell>
                <mxCell id="19" style="edgeStyle=orthogonalEdgeStyle;rounded=0;orthogonalLoop=1;jettySize=auto;html=1;" parent="1" source="5" edge="1">
                    <mxGeometry relative="1" as="geometry">
                        <mxPoint x="440" y="601" as="targetPoint"/>
                        <Array as="points">
                            <mxPoint x="490" y="570"/>
                            <mxPoint x="440" y="570"/>
                        </Array>
                    </mxGeometry>
                </mxCell>
                <mxCell id="5" value="Gerente de Operaciones y Finanzas" style="rounded=1;whiteSpace=wrap;html=1;strokeColor=#36393d;fontColor=#190033;fillColor=#F6FFDE;" parent="1" vertex="1">
                    <mxGeometry x="425" y="440" width="120" height="60" as="geometry"/>
                </mxCell>
                <mxCell id="18" style="edgeStyle=orthogonalEdgeStyle;rounded=0;orthogonalLoop=1;jettySize=auto;html=1;" parent="1" source="6" edge="1">
                    <mxGeometry relative="1" as="geometry">
                        <mxPoint x="290" y="540" as="targetPoint"/>
                    </mxGeometry>
                </mxCell>
                <mxCell id="6" value="Asistente de credito" style="rounded=1;whiteSpace=wrap;html=1;strokeColor=#36393d;fontColor=#000033;fillColor=#F6FFDE;" parent="1" vertex="1">
                    <mxGeometry x="120" y="520" width="120" height="40" as="geometry"/>
                </mxCell>
                <mxCell id="21" style="edgeStyle=orthogonalEdgeStyle;rounded=0;orthogonalLoop=1;jettySize=auto;html=1;" parent="1" source="7" edge="1">
                    <mxGeometry relative="1" as="geometry">
                        <mxPoint x="490" y="536" as="targetPoint"/>
                    </mxGeometry>
                </mxCell>
                <mxCell id="7" value="Asistente Administrativo" style="rounded=1;whiteSpace=wrap;html=1;strokeColor=#36393d;fontColor=#000033;fillColor=#F6FFDE;" parent="1" vertex="1">
                    <mxGeometry x="530" y="516" width="130" height="40" as="geometry"/>
                </mxCell>
                <mxCell id="8" value="Aserores de Creditos" style="rounded=1;whiteSpace=wrap;html=1;strokeColor=#36393d;fontColor=#000033;fillColor=#F6FFDE;" parent="1" vertex="1">
                    <mxGeometry x="215" y="600" width="150" height="50" as="geometry"/>
                </mxCell>
                <mxCell id="9" value="Cajeros" style="rounded=1;whiteSpace=wrap;html=1;strokeColor=#36393d;fontColor=#000033;fillColor=#F6FFDE;" parent="1" vertex="1">
                    <mxGeometry x="400" y="600" width="120" height="50" as="geometry"/>
                </mxCell>
                <mxCell id="10" value="Auxiliares de Oficina" style="rounded=1;whiteSpace=wrap;html=1;strokeColor=#36393d;fontColor=#000033;fillColor=#F6FFDE;" parent="1" vertex="1">
                    <mxGeometry x="560" y="600" width="120" height="50" as="geometry"/>
                </mxCell>
                <mxCell id="15" style="edgeStyle=orthogonalEdgeStyle;rounded=0;orthogonalLoop=1;jettySize=auto;html=1;entryX=0.25;entryY=0;entryDx=0;entryDy=0;exitX=0.5;exitY=1;exitDx=0;exitDy=0;" parent="1" source="2" target="5" edge="1">
                    <mxGeometry relative="1" as="geometry">
                        <mxPoint x="400" y="360" as="sourcePoint"/>
                        <mxPoint x="300" y="450" as="targetPoint"/>
                        <Array as="points">
                            <mxPoint x="390" y="410"/>
                            <mxPoint x="455" y="410"/>
                        </Array>
                    </mxGeometry>
                </mxCell>
                <mxCell id="20" style="edgeStyle=orthogonalEdgeStyle;rounded=0;orthogonalLoop=1;jettySize=auto;html=1;exitX=0.5;exitY=1;exitDx=0;exitDy=0;" parent="1" source="5" target="10" edge="1">
                    <mxGeometry relative="1" as="geometry">
                        <mxPoint x="495" y="510" as="sourcePoint"/>
                        <mxPoint x="461" y="611.02" as="targetPoint"/>
                        <Array as="points">
                            <mxPoint x="490" y="500"/>
                            <mxPoint x="490" y="570"/>
                            <mxPoint x="580" y="570"/>
                        </Array>
                    </mxGeometry>
                </mxCell>
            </root>
        </mxGraphModel>
    </diagram>
</mxfile>